<svg width="1146" height="1125" viewBox="0 0 1146 1125" fill="none" xmlns="http://www.w3.org/2000/svg">
<path d="M108.282 472.72L108.208 472.793L108.128 472.859C24.7446 542.013 -16.1845 653.414 11.9859 762.406L12.0495 762.389L12.6965 764.803C38.5897 861.438 112.747 932.597 203.493 960.817L204.022 960.949L204.089 960.966L204.155 960.987C212.005 963.418 220.009 965.573 228.056 967.328L228.109 967.34L228.162 967.354L740.599 1102.72L740.73 1102.76L740.856 1102.8C760.399 1110.31 780.95 1115.63 801.995 1118.91L802.039 1118.91L802.084 1118.92L802.539 1119.01C841.988 1125.01 883.522 1123.17 924.803 1112.11C1081.09 1070.23 1174.62 913.215 1133.97 761.505L987.258 213.958L987.257 213.954L987.255 213.95L987.254 213.946L987.253 213.941L987.252 213.937L987.251 213.933L987.25 213.929L987.249 213.924L987.248 213.92L987.246 213.916L987.245 213.912L987.244 213.908L987.243 213.903L987.242 213.899L987.241 213.895L987.24 213.891L987.239 213.886L987.237 213.882L987.236 213.878L987.235 213.874L987.234 213.87L987.233 213.865L987.232 213.861L987.231 213.857L987.23 213.853L987.228 213.849L987.227 213.844L987.226 213.84L987.225 213.836L987.224 213.832L987.223 213.828L987.222 213.824L987.221 213.819L987.219 213.815L987.218 213.811L987.217 213.807L987.216 213.803L987.215 213.798L987.214 213.794L987.213 213.79L987.212 213.786L987.21 213.782L987.209 213.778L987.208 213.773L987.207 213.769L987.206 213.765L987.205 213.761L987.204 213.757L987.203 213.753L987.202 213.748L987.2 213.744L987.199 213.74L987.198 213.736L987.197 213.732L987.196 213.728L987.195 213.724L987.194 213.719L987.193 213.715L987.192 213.711L987.19 213.707L987.189 213.703L987.188 213.699L987.187 213.695L987.186 213.69L987.185 213.686L987.184 213.682L987.183 213.678L987.182 213.674L987.18 213.67L987.179 213.666L987.178 213.661L987.177 213.657L987.176 213.653L987.175 213.649L987.174 213.645L987.173 213.641L987.172 213.637L987.17 213.633L987.169 213.628L987.168 213.624L987.167 213.62L987.166 213.616L987.165 213.612L987.164 213.608L987.163 213.604L987.162 213.6L987.161 213.595L987.159 213.591L987.158 213.587L987.157 213.583L987.156 213.579L987.155 213.575L987.154 213.571L987.153 213.567L987.152 213.563L987.151 213.558L987.15 213.554L987.148 213.55L987.147 213.546L987.146 213.542L987.145 213.538L987.144 213.534L987.143 213.53L987.142 213.526L987.141 213.522L987.14 213.517L987.139 213.513L987.137 213.509L987.136 213.505L987.135 213.501L987.134 213.497L987.133 213.493L987.132 213.489L987.131 213.485L987.13 213.481L987.129 213.477L987.128 213.472L987.126 213.468L987.125 213.464L987.124 213.46L987.123 213.456L987.122 213.452L987.121 213.448L987.12 213.444L987.119 213.44L987.118 213.436L987.117 213.432L987.116 213.428L987.114 213.424L987.113 213.419L987.112 213.415L987.111 213.411L987.11 213.407L987.109 213.403L987.108 213.399L987.107 213.395L987.106 213.391L987.105 213.387L987.104 213.383L987.102 213.379L987.101 213.375L987.1 213.371L987.099 213.367L987.098 213.363L987.097 213.358L987.096 213.354L987.095 213.35L987.094 213.346L987.093 213.342L987.092 213.338L987.09 213.334L987.089 213.33L987.088 213.326L987.087 213.322L987.086 213.318L987.085 213.314L987.084 213.31L987.083 213.306L987.082 213.302L987.081 213.298L987.08 213.294L987.079 213.289L987.077 213.285L987.076 213.281L987.075 213.277L987.074 213.273L987.073 213.269L987.072 213.265L987.071 213.261L987.07 213.257L987.069 213.253L987.068 213.249L987.067 213.245L987.066 213.241L987.064 213.237L987.063 213.233L987.062 213.229L987.061 213.225L987.06 213.221L987.059 213.217L987.058 213.213L987.057 213.209L987.056 213.205L987.055 213.201L987.054 213.196L987.053 213.192L987.051 213.188L987.05 213.184L987.049 213.18L987.048 213.176L987.047 213.172L987.046 213.168L987.045 213.164L987.044 213.16L987.043 213.156L987.042 213.152L987.041 213.148L987.04 213.144L987.038 213.14L987.037 213.136L987.036 213.132L987.035 213.128L987.034 213.124L987.033 213.12L987.032 213.116L987.031 213.112L987.03 213.108L987.029 213.104L987.028 213.1L987.027 213.096L987.026 213.092L987.024 213.088L987.023 213.084L987.022 213.08L987.021 213.076L987.02 213.071L987.019 213.067L987.018 213.063L987.017 213.059L987.016 213.055L987.015 213.051L987.014 213.047L987.013 213.043L987.012 213.039L987.01 213.035L987.009 213.031L987.008 213.027L987.007 213.023L987.006 213.019L987.005 213.015L987.004 213.011L987.003 213.007L987.002 213.003L987.001 212.999L987 212.995L986.999 212.991L986.997 212.987L986.996 212.983L986.995 212.979L986.994 212.975L986.993 212.971L986.992 212.967L986.991 212.963L986.99 212.959L986.989 212.955L986.988 212.951L986.987 212.947L986.986 212.943L986.985 212.939L986.983 212.935L986.982 212.931L986.981 212.927L986.98 212.923L986.979 212.919L986.978 212.915L986.977 212.911L986.976 212.907L986.975 212.902L986.974 212.898L986.973 212.894L986.972 212.89L986.971 212.886L986.969 212.882L986.968 212.878L986.967 212.874L986.966 212.87L986.965 212.866L986.964 212.862L986.963 212.858L986.962 212.854L986.961 212.85L986.96 212.846L986.959 212.842L986.958 212.838L986.957 212.834L986.955 212.83L986.954 212.826L986.953 212.822L986.952 212.818L986.951 212.814L986.95 212.81L986.949 212.806L986.948 212.802L986.947 212.798L986.946 212.794L986.945 212.79L986.944 212.786L986.943 212.782L986.941 212.778L986.94 212.774L986.939 212.77L986.938 212.766L986.937 212.762L986.936 212.758L986.935 212.754L986.934 212.75L986.933 212.746L986.932 212.742L986.931 212.737L986.93 212.733L986.928 212.729L986.927 212.725L986.926 212.721L986.925 212.717L986.924 212.713L986.923 212.709L986.922 212.705L986.921 212.701L986.92 212.697L986.919 212.693L986.918 212.689L986.917 212.685L986.916 212.681L986.914 212.677L986.913 212.673L986.912 212.669L986.911 212.665L986.91 212.661L986.909 212.657L986.908 212.653L986.907 212.649L986.906 212.645L986.905 212.641L986.904 212.637L986.903 212.633L986.901 212.629L986.9 212.625L986.899 212.621L986.898 212.617L986.897 212.612L986.896 212.608L986.895 212.604L986.894 212.6L986.893 212.596L986.892 212.592L986.891 212.588L986.89 212.584L986.888 212.58L986.887 212.576L986.886 212.572L986.885 212.568L986.884 212.564L986.883 212.56L986.882 212.556L986.881 212.552L986.88 212.548L986.879 212.544L986.878 212.54L986.877 212.536L986.875 212.532L986.874 212.528L986.873 212.523L986.872 212.519L986.871 212.515L986.87 212.511L986.869 212.507L986.868 212.503L986.867 212.499L986.866 212.495L986.865 212.491L986.864 212.487L986.862 212.483L986.861 212.479L986.86 212.475L986.859 212.471L986.858 212.467L986.857 212.463L986.856 212.459L986.855 212.454L986.854 212.45L986.853 212.446L986.852 212.442L986.85 212.438L986.849 212.434L986.848 212.43L986.847 212.426L986.846 212.422L986.845 212.418L986.844 212.414L986.843 212.41L986.842 212.406L986.841 212.402L986.84 212.398L986.838 212.393L986.837 212.389L986.836 212.385L986.835 212.381L986.834 212.377L986.833 212.373L986.832 212.369L986.831 212.365L986.83 212.361L986.829 212.357L986.828 212.353L986.826 212.349L986.825 212.344L986.824 212.34L986.823 212.336L986.822 212.332L986.821 212.328L986.82 212.324L986.819 212.32L986.818 212.316L986.817 212.312L986.815 212.308L986.814 212.304L986.813 212.3L986.812 212.295L986.811 212.291L986.81 212.287L986.809 212.283L986.808 212.279L986.807 212.275L986.806 212.271L986.804 212.267L986.803 212.263L986.802 212.259L986.801 212.254L986.8 212.25L986.799 212.246L986.798 212.242L986.797 212.238L986.796 212.234L986.795 212.23L986.793 212.226L986.792 212.222L986.791 212.217L986.79 212.213L986.789 212.209L986.788 212.205L986.787 212.201L986.786 212.197L986.785 212.193L986.784 212.189L986.782 212.184L986.781 212.18L986.78 212.176L986.779 212.172L986.778 212.168L986.777 212.164L986.776 212.16L986.775 212.156L986.774 212.151L986.772 212.147L986.771 212.143L986.77 212.139L986.769 212.135L986.768 212.131L986.767 212.127L986.766 212.122L986.765 212.118L986.764 212.114L986.762 212.11L986.761 212.106L986.76 212.102L986.759 212.097L986.758 212.093L986.757 212.089L986.756 212.085L986.755 212.081L986.754 212.077L986.752 212.073L986.751 212.068L986.75 212.064L986.749 212.06L986.748 212.056L986.747 212.052L986.746 212.048L986.745 212.043L986.744 212.039L986.742 212.035L986.741 212.031L986.74 212.027L986.739 212.023L986.738 212.018L986.737 212.014L986.736 212.01L986.735 212.006L986.733 212.002L986.732 211.997L986.731 211.993L986.73 211.989L986.729 211.985L986.728 211.981L986.727 211.977L986.726 211.972L986.725 211.968L986.723 211.964L986.722 211.96L986.721 211.956L986.72 211.951L986.719 211.947L986.718 211.943L986.717 211.939L986.716 211.935L986.714 211.93L986.713 211.926L986.712 211.922L986.711 211.918L986.71 211.914L986.709 211.909L986.708 211.905L986.706 211.901L986.705 211.897L986.704 211.892L986.703 211.888L986.702 211.884L986.701 211.88L986.7 211.876L986.699 211.871L986.697 211.867L986.696 211.863L986.695 211.859L986.694 211.854L986.693 211.85L986.692 211.846L986.691 211.842L986.689 211.837L986.688 211.833L986.687 211.829L986.686 211.825L986.685 211.821L986.684 211.816L986.683 211.812L986.682 211.808L986.68 211.804L986.679 211.8L986.678 211.795L986.677 211.791L986.676 211.787L986.675 211.783L986.674 211.778L986.673 211.774L986.671 211.77L986.67 211.766L986.669 211.762L986.668 211.757L986.667 211.753L986.666 211.749L986.665 211.745L986.664 211.741L986.662 211.737L986.661 211.732L986.66 211.728L986.659 211.724L986.658 211.72L986.657 211.716L986.656 211.711L986.655 211.707L986.653 211.703L986.652 211.699L986.651 211.695L986.65 211.691L986.649 211.686L986.648 211.682L986.647 211.678L986.646 211.674L986.645 211.67L986.643 211.666L986.642 211.661L986.641 211.657L986.64 211.653L986.639 211.649L986.638 211.645L986.637 211.641L986.636 211.636L986.635 211.632L986.633 211.628L986.632 211.624L986.631 211.62L986.63 211.616L986.629 211.612L986.628 211.607L986.627 211.603L986.626 211.599L986.625 211.595L986.623 211.591L986.622 211.587L986.621 211.583L986.62 211.578L986.619 211.574L986.618 211.57L986.617 211.566L986.616 211.562L986.615 211.558L986.613 211.554L986.612 211.55L986.611 211.545L986.61 211.541L986.609 211.537L986.608 211.533L986.607 211.529L986.606 211.525L986.605 211.521L986.603 211.517L986.602 211.512L986.601 211.508L986.6 211.504L986.599 211.5L986.598 211.496L986.597 211.492L986.596 211.488L986.595 211.484L986.594 211.479L986.592 211.475L986.591 211.471L986.59 211.467L986.589 211.463L986.588 211.459L986.587 211.455L986.586 211.451L986.585 211.447L986.584 211.443L986.583 211.438L986.581 211.434L986.58 211.43L986.579 211.426L986.578 211.422L986.577 211.418L986.576 211.414L986.575 211.41L986.574 211.406L986.573 211.402L986.572 211.398L986.57 211.393L986.569 211.389L986.568 211.385L986.567 211.381L986.566 211.377L986.565 211.373L986.564 211.369L986.563 211.365L986.562 211.361L986.561 211.357L986.56 211.353L986.558 211.349L986.557 211.344L986.556 211.34L986.555 211.336L986.554 211.332L986.553 211.328L986.552 211.324L986.551 211.32L986.55 211.316L986.549 211.312L986.548 211.308L986.546 211.304L986.545 211.3L986.544 211.296L986.543 211.292L986.542 211.287L986.541 211.283L986.54 211.279L986.539 211.275L986.538 211.271L986.537 211.267L986.536 211.263L986.534 211.259L986.533 211.255L986.532 211.251L986.531 211.247L986.53 211.243L986.529 211.239L986.528 211.235L986.527 211.231L986.526 211.227L986.525 211.222L986.524 211.218L986.523 211.214L986.521 211.21L986.52 211.206L986.519 211.202L986.518 211.198L986.517 211.194L986.516 211.19L986.515 211.186L986.514 211.182L986.513 211.178L986.512 211.174L986.511 211.17L986.509 211.166L986.508 211.162L986.507 211.158L986.506 211.154L986.505 211.15L986.504 211.146L986.503 211.142L986.502 211.137L986.501 211.133L986.5 211.129L986.499 211.125L986.498 211.121L986.496 211.117L986.495 211.113L986.494 211.109L986.493 211.105L986.492 211.101L986.491 211.097L986.49 211.093L986.489 211.089L986.488 211.085L986.487 211.081L986.486 211.077L986.485 211.073L986.484 211.069L986.482 211.065L986.481 211.061L986.48 211.057L986.479 211.053L986.478 211.049L986.477 211.045L986.476 211.041L986.475 211.037L986.474 211.032L986.473 211.028L986.472 211.024L986.471 211.02L986.469 211.016L986.468 211.012L986.467 211.008L986.466 211.004L986.465 211L986.464 210.996L986.463 210.992L986.462 210.988L986.461 210.984L986.46 210.98L986.459 210.976L986.458 210.972L986.457 210.968L986.455 210.964L986.454 210.96L986.453 210.956L986.452 210.952L986.451 210.948L986.45 210.944L986.449 210.94L986.448 210.936L986.447 210.932L986.446 210.928L986.445 210.924L986.444 210.92L986.442 210.916L986.441 210.912L986.44 210.908L986.439 210.904L986.438 210.9L986.437 210.896L986.436 210.892L986.435 210.888L986.434 210.884L986.433 210.88L986.432 210.875L986.431 210.871L986.43 210.867L986.428 210.863L986.427 210.859L986.426 210.855L986.425 210.851L986.424 210.847L986.423 210.843L986.422 210.839L986.421 210.835L986.42 210.831L986.419 210.827L986.418 210.823L986.417 210.819L986.416 210.815L986.414 210.811L986.413 210.807L986.412 210.803L986.411 210.799L986.41 210.795L986.409 210.791L986.408 210.787L986.407 210.783L986.406 210.779L986.405 210.775L986.404 210.771L986.403 210.767L986.402 210.763L986.4 210.759L986.399 210.755L986.398 210.751L986.397 210.747L986.396 210.743L986.395 210.739L986.394 210.735L986.393 210.731L986.392 210.727L986.391 210.723L986.39 210.719L986.389 210.715L986.388 210.711L986.386 210.707L986.385 210.703L986.384 210.698L986.383 210.694L986.382 210.69L986.381 210.686L986.38 210.682L986.379 210.678L986.378 210.674L986.377 210.67L986.376 210.666L986.375 210.662L986.374 210.658L986.372 210.654L986.371 210.65L986.37 210.646L986.369 210.642L986.368 210.638L986.367 210.634L986.366 210.63L986.365 210.626L986.364 210.622L986.363 210.618L986.362 210.614L986.361 210.61L986.359 210.606L986.358 210.602L986.357 210.598L986.356 210.594L986.355 210.59L986.354 210.586L986.353 210.582L986.352 210.578L986.351 210.574L986.35 210.57L986.349 210.566L986.348 210.561L986.347 210.557L986.345 210.553L986.344 210.549L986.343 210.545L986.342 210.541L986.341 210.537L986.34 210.533L986.339 210.529L986.338 210.525L986.337 210.521L986.336 210.517L986.335 210.513L986.334 210.509L986.332 210.505L986.331 210.501L986.33 210.497L986.329 210.493L986.328 210.489L986.327 210.485L986.326 210.481L986.325 210.477L986.324 210.473L986.323 210.469L986.322 210.465L986.321 210.46L986.319 210.456L986.318 210.452L986.317 210.448L986.316 210.444L986.315 210.44L986.314 210.436L986.313 210.432L986.312 210.428L986.311 210.424L986.31 210.42L986.309 210.416L986.307 210.412L986.306 210.408L986.305 210.404L986.304 210.4L986.303 210.396L986.302 210.392L986.301 210.388L986.3 210.383L986.299 210.379L986.298 210.375L986.297 210.371L986.296 210.367L986.294 210.363L986.293 210.359L986.292 210.355L986.291 210.351L986.29 210.347L986.289 210.343L986.288 210.339L986.287 210.335L986.286 210.331L986.285 210.327L986.284 210.323L986.282 210.318L986.281 210.314L986.28 210.31L986.279 210.306L986.278 210.302L986.277 210.298L986.276 210.294L986.275 210.29L986.274 210.286L986.273 210.282L986.272 210.278L986.27 210.274L986.269 210.27L986.268 210.265L986.267 210.261L986.266 210.257L986.265 210.253L986.264 210.249L986.263 210.245L986.262 210.241L986.261 210.237L986.26 210.233L986.258 210.229L986.257 210.225L986.256 210.221L986.255 210.216L986.254 210.212L986.253 210.208L986.252 210.204L986.251 210.2L986.25 210.196L986.249 210.192L986.247 210.188L986.246 210.184L986.245 210.18L986.244 210.175L986.243 210.171L986.242 210.167L986.241 210.163L986.24 210.159L986.239 210.155L986.238 210.151L986.236 210.147L986.235 210.143L986.234 210.138L986.233 210.134L986.232 210.13L986.231 210.126L986.23 210.122L986.229 210.118L986.228 210.114L986.227 210.11L986.225 210.106L986.224 210.101L986.223 210.097L986.222 210.093L986.221 210.089L986.22 210.085L986.219 210.081L986.218 210.077L986.217 210.073L986.215 210.068L986.214 210.064L986.213 210.06L986.212 210.056L986.211 210.052L986.21 210.048L986.209 210.044L986.208 210.039L986.207 210.035L986.205 210.031L986.204 210.027L986.203 210.023L986.202 210.019L986.201 210.015L986.2 210.01L986.199 210.006L986.198 210.002L986.197 209.998L986.195 209.994L986.194 209.99L986.193 209.986L986.192 209.981L986.191 209.977L986.19 209.973L986.189 209.969L986.188 209.965L986.187 209.961L986.185 209.956L986.184 209.952L986.183 209.948L986.182 209.944L986.181 209.94L986.18 209.936L986.179 209.931L986.178 209.927L986.177 209.923L986.175 209.919L986.174 209.915L986.173 209.91L986.172 209.906L986.171 209.902L986.17 209.898L986.169 209.894L986.168 209.89L986.166 209.885L986.165 209.881L986.164 209.877L986.163 209.873L986.162 209.869L986.161 209.864L986.16 209.86L986.159 209.856L986.157 209.852L986.156 209.848L986.155 209.843L986.154 209.839L986.153 209.835L986.152 209.831L986.151 209.827L986.15 209.822L986.148 209.818L986.147 209.814L986.146 209.81L986.145 209.805L986.144 209.801L986.143 209.797L986.142 209.793L986.14 209.789L986.139 209.784L986.138 209.78L986.137 209.776L986.136 209.772L986.135 209.767L986.046 209.437L985.94 209.465L985.262 207.104C942.553 58.3223 784.837 -28.6071 630.268 12.8865L630.267 12.8868C588.969 23.9525 552.065 43.1344 520.819 68.0944L520.411 68.4207L520.262 68.4606C504.598 80.9883 490.406 94.93 477.864 110.087L477.782 110.187L477.689 110.278L108.282 472.72Z" stroke="url(#paint0_linear_39_257)" stroke-opacity="0.2" stroke-width="5"/>
<defs>
<linearGradient id="paint0_linear_39_257" x1="807.609" y1="-588.5" x2="-38.1873" y2="359.61" gradientUnits="userSpaceOnUse">
<stop stop-color="#00F800"/>
<stop offset="1" stop-color="#00D6EE"/>
</linearGradient>
</defs>
</svg>
