<svg width="79" height="79" viewBox="0 0 79 79" fill="none" xmlns="http://www.w3.org/2000/svg">
<path d="M75.0498 30.9416H67.1498V12.5082C67.1486 11.461 66.732 10.457 65.9915 9.71648C65.251 8.97597 64.247 8.55942 63.1998 8.5582H3.94953C2.90229 8.55942 1.8983 8.97597 1.15779 9.71648C0.417284 10.457 0.00073136 11.461 -0.000488281 12.5082V52.9959C0.00073136 54.0431 0.417284 55.0471 1.15779 55.7876C1.8983 56.5281 2.90229 56.9447 3.94953 56.9459H32.258V65.1751H22.3829V70.4418H47.3997V65.1751H37.5247V56.9459H52.6664V66.4918C52.6676 67.539 53.0841 68.5431 53.8246 69.2836C54.5652 70.0241 55.5692 70.4406 56.6164 70.4418H75.0498C76.0971 70.4406 77.1011 70.0241 77.8416 69.2836C78.5821 68.5431 78.9987 67.539 78.9999 66.4918V34.8916C78.9987 33.8444 78.5821 32.8404 77.8416 32.0999C77.1011 31.3593 76.0971 30.9428 75.0498 30.9416ZM52.6664 34.8916V51.6792H5.2662V13.8249H61.8831V30.9416H56.6164C55.5692 30.9428 54.5652 31.3593 53.8246 32.0999C53.0841 32.8404 52.6676 33.8444 52.6664 34.8916ZM73.7332 65.1751H57.9331V36.2083H73.7332V65.1751Z" fill="url(#paint0_linear_22_862)"/>
<defs>
<linearGradient id="paint0_linear_22_862" x1="-25.2296" y1="-24.6339" x2="99.9148" y2="10.4449" gradientUnits="userSpaceOnUse">
<stop stop-color="#00F800"/>
<stop offset="1" stop-color="#00D6EE"/>
</linearGradient>
</defs>
</svg>
