<svg width="24" height="25" viewBox="0 0 24 25" fill="none" xmlns="http://www.w3.org/2000/svg">
<path d="M20.7844 13.0344L14.0344 19.7844C13.891 19.923 13.6994 20.0005 13.5 20.0005C13.3006 20.0005 13.109 19.923 12.9656 19.7844C12.8248 19.6422 12.7458 19.4501 12.7458 19.25C12.7458 19.0499 12.8248 18.8578 12.9656 18.7156L18.4406 13.25H3.75C3.55109 13.25 3.36032 13.171 3.21967 13.0303C3.07902 12.8897 3 12.6989 3 12.5C3 12.3011 3.07902 12.1103 3.21967 11.9697C3.36032 11.829 3.55109 11.75 3.75 11.75H18.4406L12.9656 6.28438C12.846 6.13866 12.7849 5.95366 12.7942 5.76537C12.8034 5.57708 12.8824 5.39896 13.0157 5.26566C13.149 5.13236 13.3271 5.05341 13.5154 5.04416C13.7037 5.03491 13.8887 5.09603 14.0344 5.21563L20.7844 11.9656C20.9252 12.1078 21.0042 12.2999 21.0042 12.5C21.0042 12.7001 20.9252 12.8922 20.7844 13.0344Z" fill="#292B2D"/>
</svg>
