<svg width="20" height="21" viewBox="0 0 20 21" fill="none" xmlns="http://www.w3.org/2000/svg">
<path d="M20 10.4533C20 8.3464 18.7276 6.52814 16.8912 5.68429L8.61525 1.00877C8.31554 0.795747 7.9918 0.612959 7.64826 0.463155H7.64544C6.96685 0.166296 6.21475 6.12499e-07 5.42306 6.12499e-07C2.45989 -0.00137373 0.0537216 2.31028 0.00282745 5.17991H0V5.23213C0 5.24588 0 5.25825 0 5.27199C0 5.28573 0 5.2981 0 5.31185V15.7266C0 18.6389 2.42737 21 5.42306 21C6.21475 21 6.96685 20.8337 7.64402 20.5368L7.65251 20.5327C8.01301 20.3733 8.35513 20.1795 8.66898 19.9514L17.116 15.1123C17.2517 15.0422 17.3846 14.9652 17.5133 14.8842L17.5231 14.8787C19.0118 13.9386 19.9986 12.3086 19.9986 10.4533H20Z" fill="url(#paint0_linear_4_79)"/>
<defs>
<linearGradient id="paint0_linear_4_79" x1="-6.3871" y1="-11.2636" x2="26.3525" y2="-4.4172" gradientUnits="userSpaceOnUse">
<stop stop-color="#00F800"/>
<stop offset="1" stop-color="#00D6EE"/>
</linearGradient>
</defs>
</svg>
