<svg width="79" height="79" viewBox="0 0 79 79" fill="none" xmlns="http://www.w3.org/2000/svg">
<path d="M35.5764 21.8511L22.6914 54.6277H29.8814L32.3642 48.3122H46.6356L49.1185 54.6277H56.3084L43.4235 21.8511H35.5764ZM35.0041 41.597L39.4999 30.1599L43.9957 41.597H35.0041Z" fill="url(#paint0_linear_22_864)"/>
<path d="M60.5667 6.58333H18.4333V0H0V18.4333H6.58333V60.5667H0V79H18.4333V72.4167H60.5667V79H79V60.5667H72.4167V18.4333H79V0H60.5667V6.58333ZM5.26667 13.1667V5.26667H13.1667V13.1667H5.26667ZM13.1667 73.7333H5.26667V65.8333H13.1667V73.7333ZM60.5667 67.15H18.4333V60.5667H11.85V18.4333H18.4333V11.85H60.5667V18.4333H67.15V60.5667H60.5667V67.15ZM73.7333 65.8333V73.7333H65.8333V65.8333H73.7333ZM65.8333 5.26667H73.7333V13.1667H65.8333V5.26667Z" fill="url(#paint1_linear_22_864)"/>
<defs>
<linearGradient id="paint0_linear_22_864" x1="11.9556" y1="4.27089" x2="66.6201" y2="16.5815" gradientUnits="userSpaceOnUse">
<stop stop-color="#00F800"/>
<stop offset="1" stop-color="#00D6EE"/>
</linearGradient>
<linearGradient id="paint1_linear_22_864" x1="-25.229" y1="-42.3727" x2="103.539" y2="-14.0986" gradientUnits="userSpaceOnUse">
<stop stop-color="#00F800"/>
<stop offset="1" stop-color="#00D6EE"/>
</linearGradient>
</defs>
</svg>
