<svg width="979" height="912" viewBox="0 0 979 912" fill="none" xmlns="http://www.w3.org/2000/svg">
<path d="M711.229 4.20171L711.334 4.19948L711.438 4.18854C802.093 -5.35826 893.235 35.4364 942.434 116.372L942.389 116.399L943.665 118.548C986.703 191.055 985.983 277.665 949.604 349.004L949.377 349.393L949.343 349.452L949.311 349.514C946.158 355.68 942.747 361.775 939.071 367.66L939.042 367.706L939.015 367.753L718.743 757.086L718.676 757.204L718.622 757.329C711.647 773.53 702.764 789.058 692.353 803.68L692.327 803.717L692.302 803.754L692.09 804.076C672.496 831.397 646.944 855.355 615.98 873.734C498.74 943.323 349.003 907.253 281.435 793.418L37.1567 381.87L37.1548 381.867L37.1529 381.864L37.151 381.861L37.1491 381.858L37.1473 381.854L37.1454 381.851L37.1435 381.848L37.1416 381.845L37.1397 381.842L37.1378 381.838L37.136 381.835L37.1341 381.832L37.1322 381.829L37.1303 381.826L37.1284 381.823L37.1266 381.819L37.1247 381.816L37.1228 381.813L37.1209 381.81L37.1191 381.807L37.1172 381.804L37.1153 381.801L37.1134 381.797L37.1116 381.794L37.1097 381.791L37.1078 381.788L37.106 381.785L37.1041 381.782L37.1022 381.778L37.1004 381.775L37.0985 381.772L37.0966 381.769L37.0947 381.766L37.0929 381.763L37.091 381.76L37.0892 381.756L37.0873 381.753L37.0854 381.75L37.0836 381.747L37.0817 381.744L37.0798 381.741L37.078 381.738L37.0761 381.734L37.0743 381.731L37.0724 381.728L37.0705 381.725L37.0687 381.722L37.0668 381.719L37.065 381.716L37.0631 381.713L37.0613 381.709L37.0594 381.706L37.0576 381.703L37.0557 381.7L37.0539 381.697L37.052 381.694L37.0501 381.691L37.0483 381.688L37.0464 381.684L37.0446 381.681L37.0427 381.678L37.0409 381.675L37.039 381.672L37.0372 381.669L37.0354 381.666L37.0335 381.663L37.0317 381.66L37.0298 381.656L37.028 381.653L37.0261 381.65L37.0243 381.647L37.0224 381.644L37.0206 381.641L37.0187 381.638L37.0169 381.635L37.0151 381.632L37.0132 381.629L37.0114 381.625L37.0096 381.622L37.0077 381.619L37.0059 381.616L37.004 381.613L37.0022 381.61L37.0004 381.607L36.9985 381.604L36.9967 381.601L36.9948 381.598L36.993 381.594L36.9912 381.591L36.9893 381.588L36.9875 381.585L36.9857 381.582L36.9838 381.579L36.982 381.576L36.9802 381.573L36.9784 381.57L36.9765 381.567L36.9747 381.564L36.9729 381.561L36.971 381.557L36.9692 381.554L36.9674 381.551L36.9655 381.548L36.9637 381.545L36.9619 381.542L36.9601 381.539L36.9582 381.536L36.9564 381.533L36.9546 381.53L36.9528 381.527L36.9509 381.524L36.9491 381.521L36.9473 381.517L36.9455 381.514L36.9436 381.511L36.9418 381.508L36.94 381.505L36.9382 381.502L36.9363 381.499L36.9345 381.496L36.9327 381.493L36.9309 381.49L36.9291 381.487L36.9272 381.484L36.9254 381.481L36.9236 381.478L36.9218 381.474L36.92 381.471L36.9182 381.468L36.9163 381.465L36.9145 381.462L36.9127 381.459L36.9109 381.456L36.9091 381.453L36.9073 381.45L36.9054 381.447L36.9036 381.444L36.9018 381.441L36.9 381.438L36.8982 381.435L36.8964 381.432L36.8946 381.429L36.8927 381.426L36.8909 381.422L36.8891 381.419L36.8873 381.416L36.8855 381.413L36.8837 381.41L36.8819 381.407L36.8801 381.404L36.8782 381.401L36.8764 381.398L36.8746 381.395L36.8728 381.392L36.871 381.389L36.8692 381.386L36.8674 381.383L36.8656 381.38L36.8638 381.377L36.862 381.374L36.8602 381.371L36.8584 381.368L36.8565 381.365L36.8547 381.362L36.8529 381.358L36.8511 381.355L36.8493 381.352L36.8475 381.349L36.8457 381.346L36.8439 381.343L36.8421 381.34L36.8403 381.337L36.8385 381.334L36.8367 381.331L36.8349 381.328L36.8331 381.325L36.8313 381.322L36.8295 381.319L36.8277 381.316L36.8259 381.313L36.8241 381.31L36.8223 381.307L36.8205 381.304L36.8187 381.301L36.8169 381.298L36.8151 381.295L36.8133 381.292L36.8115 381.289L36.8097 381.286L36.8078 381.283L36.806 381.279L36.8042 381.276L36.8024 381.273L36.8007 381.27L36.7989 381.267L36.7971 381.264L36.7953 381.261L36.7935 381.258L36.7917 381.255L36.7899 381.252L36.7881 381.249L36.7863 381.246L36.7845 381.243L36.7827 381.24L36.7809 381.237L36.7791 381.234L36.7773 381.231L36.7755 381.228L36.7737 381.225L36.7719 381.222L36.7701 381.219L36.7683 381.216L36.7665 381.213L36.7647 381.21L36.7629 381.207L36.7611 381.204L36.7593 381.201L36.7575 381.198L36.7557 381.195L36.7539 381.192L36.7521 381.189L36.7503 381.186L36.7485 381.183L36.7467 381.18L36.7449 381.177L36.7431 381.173L36.7413 381.17L36.7395 381.167L36.7377 381.164L36.7359 381.161L36.7342 381.158L36.7324 381.155L36.7306 381.152L36.7288 381.149L36.727 381.146L36.7252 381.143L36.7234 381.14L36.7216 381.137L36.7198 381.134L36.718 381.131L36.7162 381.128L36.7144 381.125L36.7126 381.122L36.7108 381.119L36.709 381.116L36.7072 381.113L36.7054 381.11L36.7036 381.107L36.7018 381.104L36.7 381.101L36.6983 381.098L36.6965 381.095L36.6947 381.092L36.6929 381.089L36.6911 381.086L36.6893 381.083L36.6875 381.08L36.6857 381.077L36.6839 381.074L36.6821 381.071L36.6803 381.068L36.6785 381.065L36.6767 381.062L36.6749 381.059L36.6731 381.056L36.6713 381.053L36.6695 381.05L36.6678 381.046L36.666 381.043L36.6642 381.04L36.6624 381.037L36.6606 381.034L36.6588 381.031L36.657 381.028L36.6552 381.025L36.6534 381.022L36.6516 381.019L36.6498 381.016L36.648 381.013L36.6462 381.01L36.6444 381.007L36.6426 381.004L36.6408 381.001L36.639 380.998L36.6372 380.995L36.6354 380.992L36.6336 380.989L36.6319 380.986L36.6301 380.983L36.6283 380.98L36.6265 380.977L36.6247 380.974L36.6229 380.971L36.6211 380.968L36.6193 380.965L36.6175 380.962L36.6157 380.959L36.6139 380.956L36.6121 380.953L36.6103 380.95L36.6085 380.947L36.6067 380.944L36.6049 380.941L36.6031 380.938L36.6013 380.935L36.5995 380.932L36.5977 380.928L36.5959 380.925L36.5941 380.922L36.5923 380.919L36.5905 380.916L36.5887 380.913L36.5869 380.91L36.5851 380.907L36.5833 380.904L36.5815 380.901L36.5797 380.898L36.5779 380.895L36.5761 380.892L36.5743 380.889L36.5725 380.886L36.5707 380.883L36.5689 380.88L36.5671 380.877L36.5653 380.874L36.5635 380.871L36.5617 380.868L36.5599 380.865L36.5581 380.862L36.5563 380.859L36.5545 380.856L36.5527 380.853L36.5509 380.85L36.5491 380.847L36.5473 380.844L36.5455 380.841L36.5437 380.837L36.5419 380.834L36.5401 380.831L36.5383 380.828L36.5365 380.825L36.5347 380.822L36.5329 380.819L36.5311 380.816L36.5292 380.813L36.5274 380.81L36.5256 380.807L36.5238 380.804L36.522 380.801L36.5202 380.798L36.5184 380.795L36.5166 380.792L36.5148 380.789L36.513 380.786L36.5112 380.783L36.5094 380.78L36.5076 380.777L36.5058 380.774L36.5039 380.771L36.5021 380.767L36.5003 380.764L36.4985 380.761L36.4967 380.758L36.4949 380.755L36.4931 380.752L36.4913 380.749L36.4895 380.746L36.4876 380.743L36.4858 380.74L36.484 380.737L36.4822 380.734L36.4804 380.731L36.4786 380.728L36.4768 380.725L36.4749 380.722L36.4731 380.719L36.4713 380.716L36.4695 380.712L36.4677 380.709L36.4659 380.706L36.4641 380.703L36.4622 380.7L36.4604 380.697L36.4586 380.694L36.4568 380.691L36.455 380.688L36.4531 380.685L36.4513 380.682L36.4495 380.679L36.4477 380.676L36.4459 380.673L36.444 380.67L36.4422 380.667L36.4404 380.663L36.4386 380.66L36.4368 380.657L36.4349 380.654L36.4331 380.651L36.4313 380.648L36.4295 380.645L36.4276 380.642L36.4258 380.639L36.424 380.636L36.4222 380.633L36.4203 380.63L36.4185 380.627L36.4167 380.624L36.4149 380.62L36.413 380.617L36.4112 380.614L36.4094 380.611L36.4075 380.608L36.4057 380.605L36.4039 380.602L36.4021 380.599L36.4002 380.596L36.3984 380.593L36.3966 380.59L36.3947 380.587L36.3929 380.583L36.3911 380.58L36.3892 380.577L36.3874 380.574L36.3856 380.571L36.3837 380.568L36.3819 380.565L36.38 380.562L36.3782 380.559L36.3764 380.556L36.3745 380.553L36.3727 380.549L36.3709 380.546L36.369 380.543L36.3672 380.54L36.3653 380.537L36.3635 380.534L36.3617 380.531L36.3598 380.528L36.358 380.525L36.3561 380.521L36.3543 380.518L36.3524 380.515L36.3506 380.512L36.3488 380.509L36.3469 380.506L36.3451 380.503L36.3432 380.5L36.3414 380.497L36.3395 380.494L36.3377 380.49L36.3358 380.487L36.334 380.484L36.3321 380.481L36.3303 380.478L36.3284 380.475L36.3266 380.472L36.3247 380.469L36.3229 380.465L36.321 380.462L36.3192 380.459L36.3173 380.456L36.3155 380.453L36.3136 380.45L36.3117 380.447L36.3099 380.444L36.308 380.44L36.3062 380.437L36.3043 380.434L36.3024 380.431L36.3006 380.428L36.2987 380.425L36.2969 380.422L36.295 380.419L36.2931 380.415L36.2913 380.412L36.2894 380.409L36.2876 380.406L36.2857 380.403L36.2838 380.4L36.282 380.397L36.2801 380.393L36.2782 380.39L36.2764 380.387L36.2745 380.384L36.2726 380.381L36.2707 380.378L36.2689 380.374L36.267 380.371L36.2651 380.368L36.2633 380.365L36.2614 380.362L36.2595 380.359L36.2576 380.356L36.2558 380.352L36.2539 380.349L36.252 380.346L36.2501 380.343L36.2482 380.34L36.2464 380.337L36.2445 380.333L36.2426 380.33L36.2407 380.327L36.2388 380.324L36.237 380.321L36.2351 380.318L36.2332 380.314L36.2313 380.311L36.2294 380.308L36.2275 380.305L36.2257 380.302L36.2238 380.298L36.2219 380.295L36.22 380.292L36.2181 380.289L36.2162 380.286L36.2143 380.283L36.2124 380.279L36.2106 380.276L36.2087 380.273L36.2068 380.27L36.2049 380.267L36.203 380.264L36.2011 380.26L36.1993 380.257L36.1974 380.254L36.1955 380.251L36.1936 380.248L36.1917 380.245L36.1899 380.241L36.188 380.238L36.1861 380.235L36.1842 380.232L36.1824 380.229L36.1805 380.226L36.1786 380.222L36.1767 380.219L36.1749 380.216L36.173 380.213L36.1711 380.21L36.1693 380.207L36.1674 380.204L36.1655 380.2L36.1637 380.197L36.1618 380.194L36.1599 380.191L36.1581 380.188L36.1562 380.185L36.1543 380.182L36.1525 380.178L36.1506 380.175L36.1487 380.172L36.1469 380.169L36.145 380.166L36.1432 380.163L36.1413 380.16L36.1394 380.156L36.1376 380.153L36.1357 380.15L36.1339 380.147L36.132 380.144L36.1302 380.141L36.1283 380.138L36.1264 380.135L36.1246 380.131L36.1227 380.128L36.1209 380.125L36.119 380.122L36.1172 380.119L36.1153 380.116L36.1135 380.113L36.1116 380.11L36.1098 380.106L36.1079 380.103L36.1061 380.1L36.1042 380.097L36.1024 380.094L36.1005 380.091L36.0987 380.088L36.0968 380.085L36.095 380.082L36.0931 380.078L36.0913 380.075L36.0895 380.072L36.0876 380.069L36.0858 380.066L36.0839 380.063L36.0821 380.06L36.0803 380.057L36.0784 380.054L36.0766 380.05L36.0747 380.047L36.0729 380.044L36.071 380.041L36.0692 380.038L36.0674 380.035L36.0655 380.032L36.0637 380.029L36.0619 380.026L36.06 380.023L36.0582 380.02L36.0564 380.016L36.0545 380.013L36.0527 380.01L36.0509 380.007L36.049 380.004L36.0472 380.001L36.0454 379.998L36.0435 379.995L36.0417 379.992L36.0399 379.989L36.038 379.986L36.0362 379.982L36.0344 379.979L36.0325 379.976L36.0307 379.973L36.0289 379.97L36.0271 379.967L36.0252 379.964L36.0234 379.961L36.0216 379.958L36.0198 379.955L36.0179 379.952L36.0161 379.949L36.0143 379.946L36.0125 379.942L36.0106 379.939L36.0088 379.936L36.007 379.933L36.0052 379.93L36.0033 379.927L36.0015 379.924L35.9997 379.921L35.9979 379.918L35.9961 379.915L35.9942 379.912L35.9924 379.909L35.9906 379.906L35.9888 379.903L35.987 379.9L35.9851 379.896L35.9833 379.893L35.9815 379.89L35.9797 379.887L35.9779 379.884L35.9761 379.881L35.9742 379.878L35.9724 379.875L35.9706 379.872L35.9688 379.869L35.967 379.866L35.9652 379.863L35.9634 379.86L35.9615 379.857L35.9597 379.854L35.9579 379.851L35.9561 379.848L35.9543 379.844L35.9525 379.841L35.9507 379.838L35.9489 379.835L35.947 379.832L35.9452 379.829L35.9434 379.826L35.9416 379.823L35.9398 379.82L35.938 379.817L35.9362 379.814L35.9344 379.811L35.9326 379.808L35.9308 379.805L35.929 379.802L35.9271 379.799L35.9253 379.796L35.9235 379.793L35.9217 379.79L35.9199 379.787L35.9181 379.784L35.9163 379.78L35.9145 379.777L35.9127 379.774L35.9109 379.771L35.9091 379.768L35.9073 379.765L35.9055 379.762L35.9037 379.759L35.9019 379.756L35.9001 379.753L35.8983 379.75L35.8965 379.747L35.8947 379.744L35.8928 379.741L35.891 379.738L35.8892 379.735L35.8874 379.732L35.8856 379.729L35.8838 379.726L35.882 379.723L35.8802 379.72L35.8784 379.717L35.8766 379.714L35.8748 379.711L35.873 379.708L35.8712 379.705L35.8694 379.702L35.8676 379.698L35.8658 379.695L35.864 379.692L35.8622 379.689L35.8604 379.686L35.8586 379.683L35.8568 379.68L35.855 379.677L35.8532 379.674L35.8514 379.671L35.8496 379.668L35.8478 379.665L35.846 379.662L35.8442 379.659L35.8424 379.656L35.8406 379.653L35.8389 379.65L35.8371 379.647L35.8353 379.644L35.8335 379.641L35.8317 379.638L35.8299 379.635L35.8281 379.632L35.8263 379.629L35.8245 379.626L35.8227 379.623L35.8209 379.62L35.8191 379.617L35.8173 379.614L35.8155 379.611L35.8137 379.608L35.8119 379.605L35.8101 379.602L35.8083 379.599L35.8065 379.596L35.8047 379.593L35.8029 379.589L35.8011 379.586L35.7993 379.583L35.7975 379.58L35.7957 379.577L35.794 379.574L35.7922 379.571L35.7904 379.568L35.7886 379.565L35.7868 379.562L35.785 379.559L35.7832 379.556L35.7814 379.553L35.7796 379.55L35.7778 379.547L35.776 379.544L35.7742 379.541L35.7724 379.538L35.7706 379.535L35.7688 379.532L35.767 379.529L35.7652 379.526L35.7634 379.523L35.7616 379.52L35.7599 379.517L35.7581 379.514L35.7563 379.511L35.7545 379.508L35.7527 379.505L35.7509 379.502L35.7491 379.499L35.7473 379.496L35.7455 379.493L35.7437 379.49L35.7419 379.487L35.7401 379.484L35.7383 379.481L35.7365 379.478L35.7347 379.475L35.7329 379.472L35.7311 379.469L35.7293 379.466L35.7276 379.462L35.7258 379.459L35.724 379.456L35.7222 379.453L35.7204 379.45L35.7186 379.447L35.7168 379.444L35.715 379.441L35.7132 379.438L35.7114 379.435L35.7096 379.432L35.7078 379.429L35.706 379.426L35.7042 379.423L35.7024 379.42L35.7006 379.417L35.6988 379.414L35.697 379.411L35.6952 379.408L35.6934 379.405L35.6916 379.402L35.6899 379.399L35.6881 379.396L35.6863 379.393L35.6845 379.39L35.6827 379.387L35.6809 379.384L35.6791 379.381L35.6773 379.378L35.6755 379.375L35.6737 379.372L35.6719 379.369L35.6701 379.366L35.6683 379.363L35.6665 379.36L35.6647 379.357L35.6629 379.354L35.6611 379.351L35.6593 379.347L35.6575 379.344L35.6557 379.341L35.6539 379.338L35.6521 379.335L35.6503 379.332L35.6485 379.329L35.6467 379.326L35.6449 379.323L35.6431 379.32L35.6413 379.317L35.6395 379.314L35.6377 379.311L35.6359 379.308L35.6341 379.305L35.6323 379.302L35.6305 379.299L35.6287 379.296L35.6269 379.293L35.6251 379.29L35.6233 379.287L35.6215 379.284L35.6197 379.281L35.6179 379.278L35.6161 379.275L35.6143 379.272L35.6125 379.269L35.6107 379.266L35.6089 379.263L35.6071 379.26L35.6053 379.256L35.6035 379.253L35.6017 379.25L35.5998 379.247L35.598 379.244L35.5962 379.241L35.5944 379.238L35.5926 379.235L35.5908 379.232L35.589 379.229L35.5872 379.226L35.5854 379.223L35.5836 379.22L35.5818 379.217L35.58 379.214L35.5782 379.211L35.5764 379.208L35.5746 379.205L35.5727 379.202L35.5709 379.199L35.5691 379.196L35.5673 379.193L35.5655 379.189L35.5637 379.186L35.5619 379.183L35.5601 379.18L35.5583 379.177L35.5565 379.174L35.5546 379.171L35.5528 379.168L35.551 379.165L35.5492 379.162L35.5474 379.159L35.5456 379.156L35.5438 379.153L35.542 379.15L35.5401 379.147L35.5383 379.144L35.5365 379.141L35.5347 379.138L35.5329 379.134L35.5311 379.131L35.5292 379.128L35.5274 379.125L35.5256 379.122L35.5238 379.119L35.522 379.116L35.5202 379.113L35.5183 379.11L35.5165 379.107L35.5147 379.104L35.5129 379.101L35.5111 379.098L35.5092 379.095L35.5074 379.092L35.5056 379.089L35.5038 379.085L35.5019 379.082L35.5001 379.079L35.4983 379.076L35.4965 379.073L35.4947 379.07L35.4928 379.067L35.491 379.064L35.4892 379.061L35.4874 379.058L35.4855 379.055L35.4837 379.052L35.4819 379.049L35.48 379.045L35.4782 379.042L35.4764 379.039L35.4746 379.036L35.4727 379.033L35.4709 379.03L35.4691 379.027L35.4672 379.024L35.4654 379.021L35.4636 379.018L35.4617 379.015L35.4599 379.012L35.4581 379.008L35.4562 379.005L35.4544 379.002L35.4526 378.999L35.4507 378.996L35.4489 378.993L35.4471 378.99L35.4452 378.987L35.4434 378.984L35.4416 378.981L35.4397 378.978L35.4379 378.974L35.436 378.971L35.4342 378.968L35.4324 378.965L35.4305 378.962L35.4287 378.959L35.4268 378.956L35.425 378.953L35.4232 378.95L35.4213 378.947L35.4195 378.943L35.4176 378.94L35.4158 378.937L35.4139 378.934L35.4121 378.931L35.4102 378.928L35.4084 378.925L35.4066 378.922L35.4047 378.919L35.4029 378.915L35.401 378.912L35.3992 378.909L35.3973 378.906L35.3955 378.903L35.3936 378.9L35.3918 378.897L35.3899 378.894L35.3881 378.891L35.3862 378.887L35.3843 378.884L35.3825 378.881L35.3806 378.878L35.3788 378.875L35.3769 378.872L35.3751 378.869L35.3732 378.866L35.3714 378.862L35.3695 378.859L35.3676 378.856L35.3658 378.853L35.3639 378.85L35.3621 378.847L35.3602 378.844L35.3583 378.84L35.3565 378.837L35.3546 378.834L35.3527 378.831L35.3509 378.828L35.349 378.825L35.3471 378.822L35.3453 378.818L35.3434 378.815L35.3415 378.812L35.3397 378.809L35.3382 378.806L35.4121 378.763L34.1961 376.629C-30.3953 263.276 9.98145 116.983 125.978 48.2048L125.979 48.2042C156.958 29.8163 190.246 18.8577 223.688 14.7142L224.207 14.6499L224.318 14.5835C241.066 12.5238 257.798 12.1792 274.293 13.5393L274.422 13.5499L274.552 13.5472L711.229 4.20171Z" stroke="url(#paint0_linear_39_255)" stroke-opacity="0.2" stroke-width="5"/>
<defs>
<linearGradient id="paint0_linear_39_255" x1="-342.028" y1="-199.713" x2="729.248" y2="-151.799" gradientUnits="userSpaceOnUse">
<stop stop-color="#00F800"/>
<stop offset="1" stop-color="#00D6EE"/>
</linearGradient>
</defs>
</svg>
