<svg width="24" height="24" viewBox="0 0 24 24" fill="none" xmlns="http://www.w3.org/2000/svg">
<path d="M11.8934 6.39197C11.3034 6.39197 10.7266 6.56692 10.236 6.89471C9.74548 7.22249 9.36314 7.68839 9.13735 8.23347C8.91157 8.77856 8.8525 9.37835 8.9676 9.95702C9.0827 10.5357 9.36681 11.0672 9.784 11.4844C10.2012 11.9016 10.7327 12.1857 11.3114 12.3008C11.89 12.4159 12.4898 12.3568 13.0349 12.1311C13.58 11.9053 14.0459 11.5229 14.3737 11.0324C14.7015 10.5418 14.8764 9.96504 14.8764 9.37505C14.8755 8.58416 14.561 7.82593 14.0017 7.26669C13.4425 6.70745 12.6842 6.39287 11.8934 6.39197ZM11.8934 10.8666C11.5984 10.8666 11.31 10.7791 11.0647 10.6152C10.8194 10.4513 10.6282 10.2184 10.5154 9.94583C10.4025 9.67329 10.3729 9.37339 10.4305 9.08406C10.488 8.79473 10.6301 8.52896 10.8387 8.32037C11.0473 8.11177 11.313 7.96972 11.6024 7.91217C11.8917 7.85461 12.1916 7.88415 12.4641 7.99704C12.7367 8.10993 12.9696 8.30111 13.1335 8.54639C13.2974 8.79167 13.3849 9.08005 13.3849 9.37505C13.3844 9.77049 13.2271 10.1496 12.9475 10.4292C12.6679 10.7088 12.2888 10.8661 11.8934 10.8666Z" fill="#00D6EE"/>
<path d="M17.6256 3.6383C16.2083 2.22136 14.3164 1.37964 12.315 1.27559C10.3136 1.17154 8.34455 1.81254 6.78797 3.07488C5.23138 4.33722 4.19756 6.13141 3.88603 8.11116C3.57451 10.0909 4.00737 12.1159 5.10107 13.7953L10.7366 22.4468C10.862 22.6393 11.0335 22.7975 11.2355 22.907C11.4375 23.0164 11.6636 23.0738 11.8934 23.0738C12.1231 23.0738 12.3493 23.0164 12.5513 22.907C12.7532 22.7975 12.9247 22.6393 13.0501 22.4468L18.6859 13.7953C19.7007 12.2374 20.1492 10.378 19.9561 8.52884C19.7631 6.67964 18.9403 4.95299 17.6256 3.6383ZM17.4361 12.9811L11.8934 21.4899L6.35061 12.9811C4.65398 10.3766 5.01787 6.89102 7.21584 4.69296C7.8301 4.07868 8.55934 3.59141 9.36191 3.25896C10.1645 2.92652 11.0247 2.75541 11.8934 2.75541C12.7621 2.75541 13.6223 2.92652 14.4249 3.25896C15.2275 3.59141 15.9567 4.07868 16.571 4.69296C18.7689 6.89102 19.1328 10.3766 17.4361 12.9811Z" fill="#00D6EE"/>
</svg>
