<svg width="24" height="25" viewBox="0 0 24 25" fill="none" xmlns="http://www.w3.org/2000/svg">
<path d="M12.9331 2.25352C12.6863 2.07728 12.3906 1.98254 12.0873 1.98254C11.7841 1.98254 11.4884 2.07728 11.2416 2.25352L1.17468 9.44417V23.6412H23V9.44417L12.9331 2.25352ZM21.545 19.3986L15.9054 15.7732L21.545 11.3869V19.3986ZM12.0873 3.43749L21.1098 9.88223L14.6079 14.9391L12.0873 13.3188L9.56678 14.9391L3.06489 9.88223L12.0873 3.43749ZM2.6297 11.3869L8.26926 15.7732L2.6297 19.3986V11.3869ZM21.545 22.1862H2.6297V21.1284L12.0873 15.0485L21.545 21.1284V22.1862Z" fill="#00D6EE"/>
</svg>
