<svg width="32" height="32" viewBox="0 0 32 32" fill="none" xmlns="http://www.w3.org/2000/svg">
<path d="M16.2871 31.7128C13.1794 31.7128 10.1415 30.7913 7.5575 29.0648C4.97353 27.3382 2.95957 24.8842 1.7703 22.013C0.581026 19.1419 0.269859 15.9826 0.876146 12.9346C1.48243 9.88655 2.97895 7.08679 5.17644 4.88931C8.12317 1.94257 12.1198 0.287109 16.2871 0.287109C20.4544 0.287109 24.4511 1.94257 27.3978 4.88931C30.3445 7.83604 32 11.8327 32 16C32 20.1673 30.3445 24.1639 27.3978 27.1107C25.9421 28.5743 24.2106 29.7347 22.3034 30.5247C20.3963 31.3146 18.3514 31.7185 16.2871 31.7128ZM16.2871 2.38219C8.77828 2.38219 2.66932 8.49115 2.66932 16C2.66932 23.5088 8.77828 29.6178 16.2871 29.6178C23.796 29.6178 29.9049 23.5088 29.9049 16C29.9049 8.49115 23.796 2.38219 16.2871 2.38219Z" fill="url(#paint0_linear_39_420)"/>
<path d="M16.2872 21.6714L8.21387 13.598L9.6952 12.1167L16.2872 18.7086L22.8792 12.1167L24.3605 13.598L16.2872 21.6714Z" fill="url(#paint1_linear_39_420)"/>
<defs>
<linearGradient id="paint0_linear_39_420" x1="-9.46175" y1="-16.5685" x2="41.7616" y2="-5.32123" gradientUnits="userSpaceOnUse">
<stop stop-color="#00F800"/>
<stop offset="1" stop-color="#00D6EE"/>
</linearGradient>
<linearGradient id="paint1_linear_39_420" x1="3.05736" y1="6.99189" x2="27.3062" y2="15.9897" gradientUnits="userSpaceOnUse">
<stop stop-color="#00F800"/>
<stop offset="1" stop-color="#00D6EE"/>
</linearGradient>
</defs>
</svg>
