<svg width="79" height="79" viewBox="0 0 79 79" fill="none" xmlns="http://www.w3.org/2000/svg">
<path d="M67.4308 20.1064C61.9067 14.5822 54.8685 10.8202 47.2063 9.29611C39.5441 7.772 31.602 8.55422 24.3843 11.5439C17.1667 14.5335 10.9976 19.5963 6.65736 26.0921C2.31707 32.5878 0.00046403 40.2247 0.000488281 48.037V62.5203H23.7003V57.2536H5.26712V48.037C5.26712 29.1609 20.6241 13.8039 39.5002 13.8039C58.3764 13.8039 73.7334 29.1609 73.7334 48.037V57.2536H55.3001V62.5203H79V48.037C79.0142 42.8477 77.9989 37.7072 76.0131 32.9129C74.0272 28.1186 71.1102 23.7658 67.4308 20.1064Z" fill="url(#paint0_linear_22_863)"/>
<path d="M15.8003 40.1371H10.5337V45.4037H15.8003V40.1371Z" fill="url(#paint1_linear_22_863)"/>
<path d="M42.1338 17.7539H36.8672V23.0205H42.1338V17.7539Z" fill="url(#paint2_linear_22_863)"/>
<path d="M25.0171 24.3372H19.7505V29.6038H25.0171V24.3372Z" fill="url(#paint3_linear_22_863)"/>
<path d="M68.4668 40.1371H63.2002V45.4037H68.4668V40.1371Z" fill="url(#paint4_linear_22_863)"/>
<path d="M46.2848 51.8389L57.6739 28.1105L52.9257 25.8314L41.5394 49.5535C39.019 49.0513 36.4021 49.4857 34.1792 50.7752C31.9563 52.0648 30.2801 54.1209 29.465 56.5581C28.6499 58.9953 28.7518 61.6461 29.7516 64.0135C30.7515 66.3809 32.5806 68.3023 34.8959 69.4174C37.2113 70.5324 39.8539 70.7646 42.3282 70.0704C44.8025 69.3762 46.9386 67.8032 48.336 65.6464C49.7333 63.4896 50.2959 60.8972 49.9183 58.3552C49.5407 55.8132 48.2487 53.4963 46.2848 51.8389ZM39.5003 65.1536C38.4587 65.1536 37.4405 64.8447 36.5744 64.266C35.7083 63.6873 35.0332 62.8647 34.6346 61.9024C34.236 60.94 34.1317 59.8811 34.3349 58.8595C34.5381 57.8378 35.0397 56.8994 35.7763 56.1629C36.5128 55.4263 37.4513 54.9247 38.4729 54.7215C39.4945 54.5183 40.5535 54.6226 41.5158 55.0212C42.4782 55.4198 43.3007 56.0949 43.8794 56.961C44.4581 57.827 44.767 58.8453 44.767 59.8869C44.7654 61.2833 44.21 62.6219 43.2227 63.6093C42.2353 64.5966 40.8967 65.152 39.5003 65.1536Z" fill="url(#paint5_linear_22_863)"/>
<defs>
<linearGradient id="paint0_linear_22_863" x1="-25.2284" y1="-20.4175" x2="97.1155" y2="18.895" gradientUnits="userSpaceOnUse">
<stop stop-color="#00F800"/>
<stop offset="1" stop-color="#00D6EE"/>
</linearGradient>
<linearGradient id="paint1_linear_22_863" x1="8.85177" y1="37.3122" x2="17.4363" y2="39.1972" gradientUnits="userSpaceOnUse">
<stop stop-color="#00F800"/>
<stop offset="1" stop-color="#00D6EE"/>
</linearGradient>
<linearGradient id="paint2_linear_22_863" x1="35.1853" y1="14.929" x2="43.7698" y2="16.814" gradientUnits="userSpaceOnUse">
<stop stop-color="#00F800"/>
<stop offset="1" stop-color="#00D6EE"/>
</linearGradient>
<linearGradient id="paint3_linear_22_863" x1="18.0686" y1="21.5123" x2="26.6531" y2="23.3973" gradientUnits="userSpaceOnUse">
<stop stop-color="#00F800"/>
<stop offset="1" stop-color="#00D6EE"/>
</linearGradient>
<linearGradient id="paint4_linear_22_863" x1="61.5183" y1="37.3122" x2="70.1028" y2="39.1972" gradientUnits="userSpaceOnUse">
<stop stop-color="#00F800"/>
<stop offset="1" stop-color="#00D6EE"/>
</linearGradient>
<linearGradient id="paint5_linear_22_863" x1="19.7372" y1="1.89268" x2="67.9014" y2="8.70603" gradientUnits="userSpaceOnUse">
<stop stop-color="#00F800"/>
<stop offset="1" stop-color="#00D6EE"/>
</linearGradient>
</defs>
</svg>
