<svg width="24" height="25" viewBox="0 0 24 25" fill="none" xmlns="http://www.w3.org/2000/svg">
<path d="M22.5407 3.30424L22.5041 3.28135L17.8734 1L12.8753 7.66406L15.1748 10.7302C15.106 11.8866 14.6156 12.9775 13.7965 13.7966C12.9774 14.6157 11.8865 15.1061 10.7301 15.1749L7.66401 12.8754L1 17.8733L3.26237 22.4653L3.28141 22.5041L3.30435 22.5406C3.42508 22.7352 3.59359 22.8956 3.79384 23.0066C3.99409 23.1175 4.21942 23.1754 4.44837 23.1747H5.64324C7.94551 23.1747 10.2252 22.7212 12.3523 21.8402C14.4793 20.9592 16.4119 19.6678 18.0399 18.0398C19.6678 16.4119 20.9592 14.4792 21.8402 12.3522C22.7213 10.2252 23.1747 7.94546 23.1747 5.64319V4.44826C23.1754 4.21931 23.1176 3.99399 23.0066 3.79374C22.8956 3.59349 22.7352 3.42498 22.5407 3.30424ZM21.4635 5.64319C21.4635 14.3665 14.3665 21.4635 5.64324 21.4635H4.67639L3.16269 18.3906L7.66433 15.0143L10.1706 16.894H10.4558C12.1628 16.8921 13.7994 16.2131 15.0064 15.006C16.2135 13.799 16.8924 12.1624 16.8943 10.4554V10.1702L15.0147 7.66401L18.3906 3.16264L21.4635 4.6766V5.64319Z" fill="#00D6EE"/>
</svg>
