<svg width="32" height="32" viewBox="0 0 32 32" fill="none" xmlns="http://www.w3.org/2000/svg">
<path d="M31.3598 15.6122C31.3591 15.3874 31.3539 15.1637 31.3438 14.9411V2.25116L27.8355 5.75941C24.9642 2.24482 20.5962 0 15.7037 0C10.6122 0 6.08888 2.43029 3.22952 6.19397L8.97998 12.0049C9.54352 10.9627 10.3441 10.0675 11.3094 9.39139C12.3133 8.60795 13.7358 7.96738 15.7035 7.96738C15.9412 7.96738 16.1247 7.99516 16.2595 8.04749C18.6975 8.23992 20.8108 9.5854 22.0552 11.5383L17.9847 15.6087C23.1404 15.5885 28.9648 15.5766 31.3594 15.6113" fill="#1C3AA9"/>
<path d="M15.6122 0.000488281C15.3874 0.00123495 15.1637 0.00642431 14.9411 0.0165043H2.25116L5.75941 3.52476C2.24482 6.39606 0 10.7641 0 15.6566C0 20.7481 2.43033 25.2714 6.19397 28.1308L12.0049 22.3803C10.9627 21.8168 10.0675 21.0162 9.39139 20.0509C8.60798 19.047 7.96738 17.6245 7.96738 15.6568C7.96738 15.4191 7.99516 15.2356 8.04749 15.1008C8.23992 12.6628 9.5854 10.5495 11.5383 9.30515L15.6087 13.3756C15.5885 8.21987 15.5766 2.3955 15.6113 0.000936178" fill="#4285F4"/>
<path d="M0.000564575 15.6562C0.00131124 15.8811 0.00650061 16.1048 0.0165806 16.3274V29.0173L3.52483 25.5091C6.39614 29.0237 10.7641 31.2685 15.6567 31.2685C20.7482 31.2685 25.2715 28.8382 28.1309 25.0745L22.3804 19.2636C21.8169 20.3058 21.0163 21.201 20.051 21.8771C19.0471 22.6605 17.6246 23.3011 15.6569 23.3011C15.4191 23.3011 15.2357 23.2733 15.1009 23.221C12.6628 23.0286 10.5495 21.6831 9.30523 19.7302L13.3757 15.6598C8.21995 15.68 2.39557 15.6919 0.00101318 15.6572" fill="#ABABAB"/>
</svg>
