<svg width="79" height="79" viewBox="0 0 79 79" fill="none" xmlns="http://www.w3.org/2000/svg">
<path d="M8.3 8.3H27.5V3.5H3.5V27.5H8.3V8.3Z" fill="url(#paint0_linear_22_865)"/>
<path d="M27.5001 27.5V13.1H13.1001V27.5H27.5001ZM17.9001 17.9H22.7001V22.7H17.9001V17.9Z" fill="url(#paint1_linear_22_865)"/>
<path d="M50.3003 8.3H70.7003V27.5H75.5003V3.5H50.3003V8.3Z" fill="url(#paint2_linear_22_865)"/>
<path d="M65.9 27.5V13.1H51.5V27.5H65.9ZM56.3 17.9H61.1V22.7H56.3V17.9Z" fill="url(#paint3_linear_22_865)"/>
<path d="M27.5 70.7H8.3V51.5H3.5V75.5H27.5V70.7Z" fill="url(#paint4_linear_22_865)"/>
<path d="M27.5001 51.5H13.1001V65.9H27.5001V51.5ZM22.7001 61.1H17.9001V56.3H22.7001V61.1Z" fill="url(#paint5_linear_22_865)"/>
<path d="M70.7003 70.7H50.3003V75.5H75.5003V51.5H70.7003V70.7Z" fill="url(#paint6_linear_22_865)"/>
<path d="M41.8999 46.7H61.0999V56.3H65.8999V41.9H41.8999V46.7Z" fill="url(#paint7_linear_22_865)"/>
<path d="M65.9001 65.9V61.1H37.1001V41.9H13.1001V46.7H32.3001V65.9H65.9001Z" fill="url(#paint8_linear_22_865)"/>
<path d="M37.1003 13.1H32.3003V27.5H37.1003V13.1Z" fill="url(#paint9_linear_22_865)"/>
<path d="M13.1001 37.1H46.7001V13.1H41.9001V32.3H13.1001V37.1Z" fill="url(#paint10_linear_22_865)"/>
<path d="M65.9 32.3H51.5V37.1H65.9V32.3Z" fill="url(#paint11_linear_22_865)"/>
<path d="M56.3 51.5H51.5V56.3H56.3V51.5Z" fill="url(#paint12_linear_22_865)"/>
<path d="M46.6999 51.5H41.8999V56.3H46.6999V51.5Z" fill="url(#paint13_linear_22_865)"/>
<defs>
<linearGradient id="paint0_linear_22_865" x1="-4.16452" y1="-9.37273" x2="34.955" y2="-0.783108" gradientUnits="userSpaceOnUse">
<stop stop-color="#00F800"/>
<stop offset="1" stop-color="#00D6EE"/>
</linearGradient>
<linearGradient id="paint1_linear_22_865" x1="8.50139" y1="5.37636" x2="31.9731" y2="10.5301" gradientUnits="userSpaceOnUse">
<stop stop-color="#00F800"/>
<stop offset="1" stop-color="#00D6EE"/>
</linearGradient>
<linearGradient id="paint2_linear_22_865" x1="42.2526" y1="-9.37273" x2="83.1353" y2="0.0528916" gradientUnits="userSpaceOnUse">
<stop stop-color="#00F800"/>
<stop offset="1" stop-color="#00D6EE"/>
</linearGradient>
<linearGradient id="paint3_linear_22_865" x1="46.9013" y1="5.37636" x2="70.373" y2="10.5301" gradientUnits="userSpaceOnUse">
<stop stop-color="#00F800"/>
<stop offset="1" stop-color="#00D6EE"/>
</linearGradient>
<linearGradient id="paint4_linear_22_865" x1="-4.16452" y1="38.6273" x2="34.955" y2="47.2169" gradientUnits="userSpaceOnUse">
<stop stop-color="#00F800"/>
<stop offset="1" stop-color="#00D6EE"/>
</linearGradient>
<linearGradient id="paint5_linear_22_865" x1="8.50139" y1="43.7764" x2="31.9731" y2="48.9301" gradientUnits="userSpaceOnUse">
<stop stop-color="#00F800"/>
<stop offset="1" stop-color="#00D6EE"/>
</linearGradient>
<linearGradient id="paint6_linear_22_865" x1="42.2526" y1="38.6273" x2="83.1353" y2="48.0529" gradientUnits="userSpaceOnUse">
<stop stop-color="#00F800"/>
<stop offset="1" stop-color="#00D6EE"/>
</linearGradient>
<linearGradient id="paint7_linear_22_865" x1="34.2354" y1="34.1764" x2="70.3979" y2="47.4103" gradientUnits="userSpaceOnUse">
<stop stop-color="#00F800"/>
<stop offset="1" stop-color="#00D6EE"/>
</linearGradient>
<linearGradient id="paint8_linear_22_865" x1="-3.76184" y1="29.0273" x2="69.3823" y2="64.3605" gradientUnits="userSpaceOnUse">
<stop stop-color="#00F800"/>
<stop offset="1" stop-color="#00D6EE"/>
</linearGradient>
<linearGradient id="paint9_linear_22_865" x1="30.7674" y1="5.37636" x2="38.9248" y2="5.97342" gradientUnits="userSpaceOnUse">
<stop stop-color="#00F800"/>
<stop offset="1" stop-color="#00D6EE"/>
</linearGradient>
<linearGradient id="paint10_linear_22_865" x1="2.36977" y1="0.227271" x2="54.8211" y2="16.351" gradientUnits="userSpaceOnUse">
<stop stop-color="#00F800"/>
<stop offset="1" stop-color="#00D6EE"/>
</linearGradient>
<linearGradient id="paint11_linear_22_865" x1="46.9013" y1="29.7255" x2="64.0595" y2="41.0279" gradientUnits="userSpaceOnUse">
<stop stop-color="#00F800"/>
<stop offset="1" stop-color="#00D6EE"/>
</linearGradient>
<linearGradient id="paint12_linear_22_865" x1="49.9671" y1="48.9255" x2="57.791" y2="50.6434" gradientUnits="userSpaceOnUse">
<stop stop-color="#00F800"/>
<stop offset="1" stop-color="#00D6EE"/>
</linearGradient>
<linearGradient id="paint13_linear_22_865" x1="40.367" y1="48.9255" x2="48.1909" y2="50.6434" gradientUnits="userSpaceOnUse">
<stop stop-color="#00F800"/>
<stop offset="1" stop-color="#00D6EE"/>
</linearGradient>
</defs>
</svg>
