<svg width="79" height="79" viewBox="0 0 79 79" fill="none" xmlns="http://www.w3.org/2000/svg">
<path d="M54.411 23.3258H5.92684C4.93727 23.327 3.98857 23.7206 3.28883 24.4203C2.5891 25.12 2.19549 26.0687 2.19434 27.0583V70.7597C2.19549 71.7493 2.5891 72.698 3.28883 73.3977C3.98857 74.0975 4.93727 74.4911 5.92684 74.4922H54.411C55.4006 74.4911 56.3493 74.0975 57.049 73.3977C57.7488 72.698 58.1424 71.7493 58.1435 70.7597V27.0583C58.1424 26.0687 57.7488 25.12 57.049 24.4203C56.3493 23.7206 55.4006 23.327 54.411 23.3258ZM53.1669 28.3025V35.3351H7.17101V28.3025H53.1669ZM7.17101 69.5156V40.3118H53.1669V69.5156H7.17101Z" fill="url(#paint0_linear_22_861)"/>
<path d="M73.0735 4.50775H23.3067C22.3172 4.5089 21.3684 4.90252 20.6687 5.60225C19.969 6.30198 19.5754 7.25069 19.5742 8.24026V18.3491H24.5509V9.48443H71.8293V52.275H63.1201V57.2516H73.0735C74.063 57.2505 75.0118 56.8569 75.7115 56.1571C76.4112 55.4574 76.8048 54.5087 76.806 53.5191V8.24026C76.8048 7.25069 76.4112 6.30198 75.7115 5.60225C75.0118 4.90252 74.063 4.5089 73.0735 4.50775Z" fill="url(#paint1_linear_22_861)"/>
<defs>
<linearGradient id="paint0_linear_22_861" x1="-15.6733" y1="-4.11803" x2="74.7093" y2="17.5827" gradientUnits="userSpaceOnUse">
<stop stop-color="#00F800"/>
<stop offset="1" stop-color="#00D6EE"/>
</linearGradient>
<linearGradient id="paint1_linear_22_861" x1="1.29698" y1="-23.7822" x2="93.8285" y2="-1.73588" gradientUnits="userSpaceOnUse">
<stop stop-color="#00F800"/>
<stop offset="1" stop-color="#00D6EE"/>
</linearGradient>
</defs>
</svg>
